<svg width="290" height="113" viewBox="0 0 290 113" fill="none" xmlns="http://www.w3.org/2000/svg">
<g filter="url(#filter0_d_340_4665)">
<path d="M2 13.667C2 7.03957 7.37258 1.66699 14 1.66699H276C282.627 1.66699 288 7.03958 288 13.667V97.667C288 104.294 282.627 109.667 276 109.667H14C7.37258 109.667 2 104.294 2 97.667V13.667Z" fill="#1F1F1F" shape-rendering="crispEdges"/>
<path d="M28.6666 20.334L23.4208 25.5797C23.1568 25.8437 23.0248 25.9758 22.8726 26.0252C22.7387 26.0687 22.5945 26.0687 22.4606 26.0252C22.3084 25.9758 22.1763 25.8437 21.9123 25.5797L20.0875 23.7549C19.8235 23.4909 19.6915 23.3589 19.5393 23.3094C19.4054 23.2659 19.2611 23.2659 19.1272 23.3094C18.975 23.3589 18.843 23.4909 18.579 23.7549L15.3333 27.0007M28.6666 20.334H23.9999M28.6666 20.334V25.0007" stroke="#17B26A" stroke-width="2" stroke-linecap="round" stroke-linejoin="round"/>
<path d="M34.877 26.6784V25.4355L39.2768 18.4852H40.2562V20.3147H39.6348L36.4877 25.2963V25.3758H42.5183V26.6784H34.877ZM39.7044 28.667V26.3005L39.7143 25.7338V18.4852H41.171V28.667H39.7044ZM44.8674 28.7615C44.5956 28.7615 44.3619 28.6653 44.1664 28.4731C43.9708 28.2776 43.873 28.0422 43.873 27.7671C43.873 27.4954 43.9708 27.2633 44.1664 27.0711C44.3619 26.8756 44.5956 26.7778 44.8674 26.7778C45.1391 26.7778 45.3728 26.8756 45.5684 27.0711C45.7639 27.2633 45.8617 27.4954 45.8617 27.7671C45.8617 27.9494 45.8153 28.1168 45.7225 28.2693C45.633 28.4184 45.5137 28.5377 45.3645 28.6272C45.2154 28.7167 45.0497 28.7615 44.8674 28.7615ZM51.0185 28.8062C50.5644 28.7996 50.117 28.7167 49.6761 28.5576C49.2386 28.3985 48.8409 28.1334 48.483 27.7622C48.125 27.391 47.8383 26.8921 47.6229 26.2657C47.4107 25.6393 47.3047 24.8571 47.3047 23.9191C47.3047 23.0309 47.3925 22.242 47.5682 21.5526C47.7472 20.8633 48.004 20.2816 48.3388 19.8076C48.6735 19.3303 49.0779 18.9674 49.5518 18.7188C50.0258 18.4703 50.5578 18.346 51.1477 18.346C51.7543 18.346 52.2929 18.4653 52.7635 18.7039C53.2341 18.9426 53.6153 19.2723 53.907 19.6933C54.2019 20.1142 54.3892 20.5931 54.4688 21.1301H52.9524C52.8497 20.7058 52.6458 20.3595 52.3409 20.091C52.036 19.8225 51.6383 19.6883 51.1477 19.6883C50.402 19.6883 49.8203 20.0131 49.4027 20.6627C48.9884 21.3124 48.7796 22.2155 48.7763 23.3722H48.8509C49.0265 23.0839 49.242 22.8386 49.4972 22.6365C49.7557 22.431 50.044 22.2735 50.3622 22.1642C50.6837 22.0515 51.0218 21.9951 51.3764 21.9951C51.9664 21.9951 52.5 22.1393 52.9773 22.4276C53.4579 22.7127 53.8407 23.1071 54.1257 23.6109C54.4107 24.1147 54.5533 24.6914 54.5533 25.341C54.5533 25.9906 54.4058 26.5789 54.1108 27.1059C53.8191 27.6329 53.4081 28.0505 52.8778 28.3588C52.3475 28.6637 51.7277 28.8128 51.0185 28.8062ZM51.0135 27.5136C51.4046 27.5136 51.7543 27.4175 52.0625 27.2252C52.3707 27.033 52.6143 26.7745 52.7933 26.4497C52.9723 26.1249 53.0618 25.7619 53.0618 25.3609C53.0618 24.9698 52.974 24.6135 52.7983 24.292C52.6259 23.9705 52.3873 23.7153 52.0824 23.5264C51.7808 23.3374 51.4361 23.243 51.0483 23.243C50.7533 23.243 50.4799 23.2993 50.228 23.412C49.9794 23.5247 49.7607 23.6805 49.5717 23.8794C49.3828 24.0782 49.2337 24.3069 49.1243 24.5654C49.0182 24.8206 48.9652 25.0908 48.9652 25.3758C48.9652 25.757 49.053 26.1099 49.2287 26.4347C49.4077 26.7596 49.6513 27.0214 49.9595 27.2203C50.2711 27.4158 50.6224 27.5136 51.0135 27.5136ZM61.6788 26.7579V26.221C61.6788 25.8365 61.7583 25.4852 61.9174 25.167C62.0798 24.8455 62.3152 24.5886 62.6234 24.3964C62.935 24.2008 63.3111 24.1031 63.752 24.1031C64.2027 24.1031 64.5806 24.1992 64.8855 24.3914C65.1904 24.5837 65.4208 24.8405 65.5765 25.162C65.7356 25.4835 65.8152 25.8365 65.8152 26.221V26.7579C65.8152 27.1424 65.7356 27.4954 65.5765 27.8169C65.4174 28.135 65.1838 28.3919 64.8755 28.5874C64.5706 28.7797 64.1961 28.8758 63.752 28.8758C63.3045 28.8758 62.9267 28.7797 62.6184 28.5874C62.3102 28.3919 62.0765 28.135 61.9174 27.8169C61.7583 27.4954 61.6788 27.1424 61.6788 26.7579ZM62.8372 26.221V26.7579C62.8372 27.0429 62.9051 27.3015 63.041 27.5335C63.1769 27.7655 63.4139 27.8815 63.752 27.8815C64.0867 27.8815 64.3204 27.7655 64.4529 27.5335C64.5855 27.3015 64.6518 27.0429 64.6518 26.7579V26.221C64.6518 25.9359 64.5872 25.6774 64.4579 25.4454C64.332 25.2134 64.0967 25.0974 63.752 25.0974C63.4205 25.0974 63.1852 25.2134 63.046 25.4454C62.9068 25.6774 62.8372 25.9359 62.8372 26.221ZM56.5581 20.9312V20.3943C56.5581 20.0098 56.6376 19.6568 56.7967 19.3353C56.9591 19.0138 57.1944 18.757 57.5027 18.5647C57.8142 18.3725 58.1904 18.2764 58.6312 18.2764C59.082 18.2764 59.4598 18.3725 59.7647 18.5647C60.0697 18.757 60.3 19.0138 60.4558 19.3353C60.6116 19.6568 60.6895 20.0098 60.6895 20.3943V20.9312C60.6895 21.3157 60.6099 21.6686 60.4508 21.9901C60.295 22.3083 60.063 22.5652 59.7548 22.7607C59.4499 22.953 59.0753 23.0491 58.6312 23.0491C58.1805 23.0491 57.801 22.953 57.4927 22.7607C57.1878 22.5652 56.9558 22.3083 56.7967 21.9901C56.6376 21.6686 56.5581 21.3157 56.5581 20.9312ZM57.7214 20.3943V20.9312C57.7214 21.2162 57.7877 21.4748 57.9203 21.7068C58.0562 21.9388 58.2931 22.0548 58.6312 22.0548C58.9627 22.0548 59.1947 21.9388 59.3272 21.7068C59.4631 21.4748 59.5311 21.2162 59.5311 20.9312V20.3943C59.5311 20.1092 59.4664 19.8507 59.3372 19.6187C59.2079 19.3867 58.9726 19.2707 58.6312 19.2707C58.2998 19.2707 58.0645 19.3867 57.9252 19.6187C57.7894 19.8507 57.7214 20.1092 57.7214 20.3943ZM57.0304 28.667L64.0304 18.4852H65.2186L58.2186 28.667H57.0304ZM75.8205 23.5761C75.8205 22.3299 75.9846 21.1831 76.3127 20.1357C76.6408 19.0884 77.1197 18.1222 77.7495 17.2373H79.1117C78.8664 17.5654 78.6377 17.9681 78.4256 18.4454C78.2135 18.9227 78.0279 19.4463 77.8688 20.0164C77.7097 20.5832 77.5854 21.1715 77.4959 21.7813C77.4064 22.3879 77.3617 22.9861 77.3617 23.5761C77.3617 24.3649 77.4396 25.1637 77.5953 25.9724C77.7511 26.7811 77.9616 27.5318 78.2267 28.2245C78.4919 28.9172 78.7869 29.4823 79.1117 29.9198H77.7495C77.1197 29.0349 76.6408 28.0687 76.3127 27.0214C75.9846 25.974 75.8205 24.8256 75.8205 23.5761ZM80.6591 28.667V27.5534L84.1044 23.9838C84.4723 23.596 84.7756 23.2562 85.0142 22.9646C85.2562 22.6696 85.4368 22.3895 85.5561 22.1244C85.6754 21.8592 85.7351 21.5775 85.7351 21.2792C85.7351 20.9411 85.6555 20.6495 85.4964 20.4042C85.3374 20.1556 85.1203 19.9651 84.8452 19.8325C84.5701 19.6966 84.2602 19.6286 83.9155 19.6286C83.5509 19.6286 83.2327 19.7032 82.9609 19.8524C82.6892 20.0015 82.4804 20.212 82.3345 20.4838C82.1887 20.7555 82.1158 21.0737 82.1158 21.4383H80.6491C80.6491 20.8185 80.7917 20.2766 81.0767 19.8126C81.3617 19.3486 81.7528 18.989 82.25 18.7338C82.7472 18.4752 83.3123 18.346 83.9453 18.346C84.585 18.346 85.1484 18.4736 85.6357 18.7288C86.1262 18.9807 86.509 19.3254 86.7841 19.7629C87.0592 20.1971 87.1967 20.6876 87.1967 21.2345C87.1967 21.6123 87.1255 21.9819 86.983 22.3431C86.8438 22.7044 86.6001 23.1071 86.2521 23.5512C85.9041 23.992 85.4202 24.5273 84.8004 25.157L82.777 27.2749V27.3495H87.3608V28.667H80.6591ZM88.8125 26.6784V25.4355L93.2124 18.4852H94.1918V20.3147H93.5703L90.4233 25.2963V25.3758H96.4538V26.6784H88.8125ZM93.6399 28.667V26.3005L93.6499 25.7338V18.4852H95.1065V28.667H93.6399ZM98.3256 28.667V18.4852H99.8619V22.9099H104.938V18.4852H106.479V28.667H104.938V24.2274H99.8619V28.667H98.3256ZM111.456 23.5761C111.456 24.8256 111.292 25.974 110.963 27.0214C110.635 28.0687 110.156 29.0349 109.527 29.9198H108.164C108.41 29.5917 108.638 29.189 108.85 28.7117C109.063 28.2345 109.248 27.7124 109.407 27.1457C109.566 26.5756 109.691 25.9856 109.78 25.3758C109.87 24.766 109.914 24.166 109.914 23.5761C109.914 22.7906 109.837 21.9935 109.681 21.1847C109.525 20.376 109.315 19.6253 109.049 18.9326C108.784 18.2399 108.489 17.6748 108.164 17.2373H109.527C110.156 18.1222 110.635 19.0884 110.963 20.1357C111.292 21.1831 111.456 22.3299 111.456 23.5761Z" fill="#079455"/>
<mask id="mask0_340_4665" style="mask-type:alpha" maskUnits="userSpaceOnUse" x="14" y="41" width="262" height="57">
<rect width="262" height="56" transform="translate(14 41.667)" fill="url(#paint0_linear_340_4665)"/>
</mask>
<g mask="url(#mask0_340_4665)">
<path opacity="0.1" d="M266.643 48.667L276 58.667V97.667H14L23.3571 83.667L32.7143 88.667L42.0714 85.667L51.4286 81.667L60.7857 82.667L70.1429 70.667L79.5 81.667L88.8571 75.667L98.2143 77.667L107.571 68.667L116.929 83.667L126.286 75.667L135.643 86.667L145 56.667L154.357 60.667L163.714 47.8001L173.071 51.667L182.429 41.667L191.786 49.667L201.143 51.667L210.5 47.8001L219.857 52.667L229.214 47.8001L238.571 65.667L247.929 57.667L257.286 60.667L266.643 48.667Z" fill="#00A67E"/>
</g>
<path d="M276 58.667L267.442 49.5213C267.022 49.0727 266.301 49.1051 265.923 49.5896L257.715 60.1165C257.457 60.4472 257.02 60.5819 256.621 60.4539L248.46 57.8373C248.13 57.7314 247.768 57.8042 247.505 58.0295L239.525 64.8517C239.037 65.2691 238.287 65.1246 237.989 64.5555L229.677 48.6834C229.421 48.1952 228.819 48.0059 228.33 48.2602L220.319 52.427C220.029 52.5774 219.685 52.5774 219.396 52.427L210.913 48.0149C210.651 47.8787 210.342 47.8652 210.07 47.9779L201.43 51.5483C201.243 51.6256 201.037 51.6443 200.839 51.6021L192.034 49.72C191.871 49.6852 191.719 49.6103 191.593 49.5022L183.155 42.2883C182.749 41.9408 182.141 41.9746 181.775 42.3652L173.544 51.1618C173.26 51.4658 172.817 51.5617 172.432 51.4028L164.442 48.1008C164.015 47.9244 163.523 48.0633 163.251 48.4368L154.826 60.0223C154.552 60.3995 154.053 60.537 153.624 60.3537L146.018 57.1022C145.473 56.8693 144.847 57.1584 144.67 57.7239L136.183 84.9344C135.949 85.6864 134.977 85.8846 134.467 85.2846L126.935 76.4306C126.577 76.0092 125.944 75.9589 125.524 76.3185L117.812 82.9119C117.347 83.3093 116.637 83.2 116.314 82.681L108.224 69.7134C107.888 69.1743 107.141 69.0815 106.683 69.522L98.5971 77.2988C98.3577 77.529 98.0197 77.6254 97.6949 77.556L89.2595 75.753C89.0018 75.6979 88.7326 75.7468 88.5107 75.8891L80.2354 81.1954C79.8142 81.4655 79.2582 81.3827 78.9339 81.0016L70.9383 71.6021C70.5277 71.1194 69.7776 71.1354 69.388 71.6351L61.1276 82.2285C60.915 82.5012 60.5766 82.6446 60.2328 82.6079L51.688 81.6947C51.5179 81.6765 51.346 81.7023 51.1887 81.7695L42.0714 85.667L33.1175 88.5377C32.8597 88.6204 32.5796 88.595 32.3409 88.4675L24.1563 84.094C23.7028 83.8517 23.1394 83.9928 22.8536 84.4203L14 97.667" stroke="#00A67E" stroke-width="2" stroke-linecap="round" stroke-linejoin="round"/>
</g>
<defs>
<filter id="filter0_d_340_4665" x="0" y="0.666992" width="290" height="112" filterUnits="userSpaceOnUse" color-interpolation-filters="sRGB">
<feFlood flood-opacity="0" result="BackgroundImageFix"/>
<feColorMatrix in="SourceAlpha" type="matrix" values="0 0 0 0 0 0 0 0 0 0 0 0 0 0 0 0 0 0 127 0" result="hardAlpha"/>
<feOffset dy="1"/>
<feGaussianBlur stdDeviation="1"/>
<feComposite in2="hardAlpha" operator="out"/>
<feColorMatrix type="matrix" values="0 0 0 0 0.0392157 0 0 0 0 0.0496732 0 0 0 0 0.0705882 0 0 0 0.05 0"/>
<feBlend mode="normal" in2="BackgroundImageFix" result="effect1_dropShadow_340_4665"/>
<feBlend mode="normal" in="SourceGraphic" in2="effect1_dropShadow_340_4665" result="shape"/>
</filter>
<linearGradient id="paint0_linear_340_4665" x1="131" y1="0" x2="131" y2="56" gradientUnits="userSpaceOnUse">
<stop/>
<stop offset="1" stop-opacity="0"/>
</linearGradient>
</defs>
</svg>
