<svg width="290" height="113" viewBox="0 0 290 113" fill="none" xmlns="http://www.w3.org/2000/svg">
<g filter="url(#filter0_d_340_4637)">
<path d="M2 13.667C2 7.03957 7.37258 1.66699 14 1.66699H276C282.627 1.66699 288 7.03958 288 13.667V97.667C288 104.294 282.627 109.667 276 109.667H14C7.37258 109.667 2 104.294 2 97.667V13.667Z" fill="#1F1F1F" shape-rendering="crispEdges"/>
<path d="M28.6666 27.0007L23.4208 21.7549C23.1568 21.4909 23.0248 21.3589 22.8726 21.3094C22.7387 21.2659 22.5945 21.2659 22.4606 21.3094C22.3084 21.3589 22.1763 21.4909 21.9123 21.7549L20.0875 23.5797C19.8235 23.8437 19.6915 23.9758 19.5393 24.0252C19.4054 24.0687 19.2611 24.0687 19.1272 24.0252C18.975 23.9758 18.843 23.8437 18.579 23.5797L15.3333 20.334M28.6666 27.0007H23.9999M28.6666 27.0007V22.334" stroke="#F04438" stroke-width="2" stroke-linecap="round" stroke-linejoin="round"/>
<path d="M35.372 28.667V27.5534L38.8173 23.9838C39.1852 23.596 39.4885 23.2562 39.7271 22.9646C39.969 22.6696 40.1497 22.3895 40.269 22.1244C40.3883 21.8592 40.448 21.5775 40.448 21.2792C40.448 20.9411 40.3684 20.6495 40.2093 20.4042C40.0502 20.1556 39.8332 19.9651 39.5581 19.8325C39.283 19.6966 38.9731 19.6286 38.6284 19.6286C38.2638 19.6286 37.9456 19.7032 37.6738 19.8524C37.402 20.0015 37.1932 20.212 37.0474 20.4838C36.9016 20.7555 36.8287 21.0737 36.8287 21.4383H35.362C35.362 20.8185 35.5046 20.2766 35.7896 19.8126C36.0746 19.3486 36.4657 18.989 36.9629 18.7338C37.46 18.4752 38.0252 18.346 38.6582 18.346C39.2979 18.346 39.8613 18.4736 40.3485 18.7288C40.8391 18.9807 41.2219 19.3254 41.497 19.7629C41.7721 20.1971 41.9096 20.6876 41.9096 21.2345C41.9096 21.6123 41.8384 21.9819 41.6958 22.3431C41.5566 22.7044 41.313 23.1071 40.965 23.5512C40.617 23.992 40.1331 24.5273 39.5133 25.157L37.4899 27.2749V27.3495H42.0737V28.667H35.372ZM44.9572 28.7615C44.6854 28.7615 44.4518 28.6653 44.2562 28.4731C44.0607 28.2776 43.9629 28.0422 43.9629 27.7671C43.9629 27.4954 44.0607 27.2633 44.2562 27.0711C44.4518 26.8756 44.6854 26.7778 44.9572 26.7778C45.229 26.7778 45.4627 26.8756 45.6582 27.0711C45.8538 27.2633 45.9515 27.4954 45.9515 27.7671C45.9515 27.9494 45.9051 28.1168 45.8123 28.2693C45.7228 28.4184 45.6035 28.5377 45.4544 28.6272C45.3052 28.7167 45.1395 28.7615 44.9572 28.7615ZM47.709 26.6784V25.4355L52.1088 18.4852H53.0882V20.3147H52.4668L49.3198 25.2963V25.3758H55.3503V26.6784H47.709ZM52.5364 28.667V26.3005L52.5463 25.7338V18.4852H54.003V28.667H52.5364ZM62.3975 26.7579V26.221C62.3975 25.8365 62.4771 25.4852 62.6362 25.167C62.7986 24.8455 63.0339 24.5886 63.3422 24.3964C63.6537 24.2008 64.0299 24.1031 64.4707 24.1031C64.9215 24.1031 65.2993 24.1992 65.6042 24.3914C65.9092 24.5837 66.1395 24.8405 66.2953 25.162C66.4544 25.4835 66.5339 25.8365 66.5339 26.221V26.7579C66.5339 27.1424 66.4544 27.4954 66.2953 27.8169C66.1362 28.135 65.9025 28.3919 65.5943 28.5874C65.2894 28.7797 64.9148 28.8758 64.4707 28.8758C64.0233 28.8758 63.6454 28.7797 63.3372 28.5874C63.0289 28.3919 62.7953 28.135 62.6362 27.8169C62.4771 27.4954 62.3975 27.1424 62.3975 26.7579ZM63.5559 26.221V26.7579C63.5559 27.0429 63.6239 27.3015 63.7598 27.5335C63.8957 27.7655 64.1326 27.8815 64.4707 27.8815C64.8055 27.8815 65.0391 27.7655 65.1717 27.5335C65.3043 27.3015 65.3706 27.0429 65.3706 26.7579V26.221C65.3706 25.9359 65.3059 25.6774 65.1767 25.4454C65.0507 25.2134 64.8154 25.0974 64.4707 25.0974C64.1393 25.0974 63.9039 25.2134 63.7647 25.4454C63.6255 25.6774 63.5559 25.9359 63.5559 26.221ZM57.2768 20.9312V20.3943C57.2768 20.0098 57.3564 19.6568 57.5154 19.3353C57.6779 19.0138 57.9132 18.757 58.2214 18.5647C58.533 18.3725 58.9092 18.2764 59.35 18.2764C59.8007 18.2764 60.1786 18.3725 60.4835 18.5647C60.7884 18.757 61.0188 19.0138 61.1745 19.3353C61.3303 19.6568 61.4082 20.0098 61.4082 20.3943V20.9312C61.4082 21.3157 61.3287 21.6686 61.1696 21.9901C61.0138 22.3083 60.7818 22.5652 60.4735 22.7607C60.1686 22.953 59.7941 23.0491 59.35 23.0491C58.8992 23.0491 58.5197 22.953 58.2115 22.7607C57.9065 22.5652 57.6745 22.3083 57.5154 21.9901C57.3564 21.6686 57.2768 21.3157 57.2768 20.9312ZM58.4402 20.3943V20.9312C58.4402 21.2162 58.5065 21.4748 58.639 21.7068C58.7749 21.9388 59.0119 22.0548 59.35 22.0548C59.6814 22.0548 59.9134 21.9388 60.046 21.7068C60.1819 21.4748 60.2498 21.2162 60.2498 20.9312V20.3943C60.2498 20.1092 60.1852 19.8507 60.0559 19.6187C59.9267 19.3867 59.6913 19.2707 59.35 19.2707C59.0185 19.2707 58.7832 19.3867 58.644 19.6187C58.5081 19.8507 58.4402 20.1092 58.4402 20.3943ZM57.7491 28.667L64.7491 18.4852H65.9373L58.9373 28.667H57.7491ZM76.5392 23.5761C76.5392 22.3299 76.7033 21.1831 77.0314 20.1357C77.3596 19.0884 77.8385 18.1222 78.4682 17.2373H79.8304C79.5852 17.5654 79.3565 17.9681 79.1444 18.4454C78.9322 18.9227 78.7466 19.4463 78.5875 20.0164C78.4284 20.5832 78.3042 21.1715 78.2147 21.7813C78.1252 22.3879 78.0804 22.9861 78.0804 23.5761C78.0804 24.3649 78.1583 25.1637 78.3141 25.9724C78.4699 26.7811 78.6803 27.5318 78.9455 28.2245C79.2106 28.9172 79.5056 29.4823 79.8304 29.9198H78.4682C77.8385 29.0349 77.3596 28.0687 77.0314 27.0214C76.7033 25.974 76.5392 24.8256 76.5392 23.5761ZM81.3778 28.667V27.5534L84.8232 23.9838C85.1911 23.596 85.4943 23.2562 85.733 22.9646C85.9749 22.6696 86.1555 22.3895 86.2749 22.1244C86.3942 21.8592 86.4538 21.5775 86.4538 21.2792C86.4538 20.9411 86.3743 20.6495 86.2152 20.4042C86.0561 20.1556 85.839 19.9651 85.5639 19.8325C85.2888 19.6966 84.9789 19.6286 84.6342 19.6286C84.2696 19.6286 83.9515 19.7032 83.6797 19.8524C83.4079 20.0015 83.1991 20.212 83.0533 20.4838C82.9074 20.7555 82.8345 21.0737 82.8345 21.4383H81.3679C81.3679 20.8185 81.5104 20.2766 81.7955 19.8126C82.0805 19.3486 82.4716 18.989 82.9688 18.7338C83.4659 18.4752 84.031 18.346 84.6641 18.346C85.3037 18.346 85.8672 18.4736 86.3544 18.7288C86.8449 18.9807 87.2277 19.3254 87.5028 19.7629C87.7779 20.1971 87.9155 20.6876 87.9155 21.2345C87.9155 21.6123 87.8442 21.9819 87.7017 22.3431C87.5625 22.7044 87.3189 23.1071 86.9709 23.5512C86.6229 23.992 86.139 24.5273 85.5192 25.157L83.4957 27.2749V27.3495H88.0795V28.667H81.3778ZM89.5312 26.6784V25.4355L93.9311 18.4852H94.9105V20.3147H94.2891L91.142 25.2963V25.3758H97.1726V26.6784H89.5312ZM94.3587 28.667V26.3005L94.3686 25.7338V18.4852H95.8253V28.667H94.3587ZM99.0444 28.667V18.4852H100.581V22.9099H105.657V18.4852H107.198V28.667H105.657V24.2274H100.581V28.667H99.0444ZM112.174 23.5761C112.174 24.8256 112.01 25.974 111.682 27.0214C111.354 28.0687 110.875 29.0349 110.245 29.9198H108.883C109.128 29.5917 109.357 29.189 109.569 28.7117C109.781 28.2345 109.967 27.7124 110.126 27.1457C110.285 26.5756 110.409 25.9856 110.499 25.3758C110.588 24.766 110.633 24.166 110.633 23.5761C110.633 22.7906 110.555 21.9935 110.4 21.1847C110.244 20.376 110.033 19.6253 109.768 18.9326C109.503 18.2399 109.208 17.6748 108.883 17.2373H110.245C110.875 18.1222 111.354 19.0884 111.682 20.1357C112.01 21.1831 112.174 22.3299 112.174 23.5761Z" fill="#D92D20"/>
<mask id="mask0_340_4637" style="mask-type:alpha" maskUnits="userSpaceOnUse" x="14" y="41" width="262" height="57">
<rect width="262" height="56" transform="translate(14 41.667)" fill="url(#paint0_linear_340_4637)"/>
</mask>
<g mask="url(#mask0_340_4637)">
<path opacity="0.1" d="M23.3571 48.667L14 58.667V97.667H276L266.643 83.667L257.286 88.667L247.929 85.667L238.571 81.667L229.214 82.667L219.857 70.667L210.5 81.667L201.143 75.667L191.786 77.667L182.429 68.667L173.071 83.667L163.714 75.667L154.357 86.667L145 56.667L135.643 60.667L126.286 47.8001L116.929 51.667L107.571 41.667L98.2143 49.667L88.8571 51.667L79.5 47.8001L70.1429 52.667L60.7857 47.8001L51.4286 65.667L42.0714 57.667L32.7143 60.667L23.3571 48.667Z" fill="#F04438"/>
</g>
<path d="M14 58.667L22.5578 49.5213C22.9775 49.0727 23.6988 49.1051 24.0766 49.5896L32.2851 60.1165C32.5429 60.4472 32.9797 60.5819 33.379 60.4539L41.5403 57.8373C41.8704 57.7314 42.2319 57.8042 42.4954 58.0295L50.4749 64.8517C50.9632 65.2691 51.7127 65.1246 52.0106 64.5555L60.3231 48.6834C60.5788 48.1952 61.1814 48.0059 61.6704 48.2602L69.6814 52.427C69.9706 52.5774 70.3151 52.5774 70.6043 52.427L79.0869 48.0149C79.3488 47.8787 79.6575 47.8652 79.9303 47.9779L88.57 51.5483C88.757 51.6256 88.9631 51.6443 89.161 51.6021L97.9662 49.72C98.129 49.6852 98.2805 49.6103 98.4071 49.5022L106.845 42.2883C107.251 41.9408 107.859 41.9746 108.225 42.3652L116.456 51.1618C116.74 51.4658 117.183 51.5617 117.568 51.4028L125.558 48.1008C125.985 47.9244 126.477 48.0633 126.749 48.4368L135.174 60.0223C135.448 60.3995 135.947 60.537 136.376 60.3537L143.982 57.1022C144.527 56.8693 145.153 57.1584 145.33 57.7239L153.817 84.9344C154.051 85.6864 155.023 85.8846 155.533 85.2846L163.065 76.4306C163.423 76.0092 164.056 75.9589 164.476 76.3185L172.188 82.9119C172.653 83.3093 173.363 83.2 173.686 82.681L181.776 69.7134C182.112 69.1743 182.859 69.0815 183.317 69.522L191.403 77.2988C191.642 77.529 191.98 77.6254 192.305 77.556L200.74 75.753C200.998 75.6979 201.267 75.7468 201.489 75.8891L209.765 81.1954C210.186 81.4655 210.742 81.3827 211.066 81.0016L219.062 71.6021C219.472 71.1194 220.222 71.1354 220.612 71.6351L228.872 82.2285C229.085 82.5012 229.423 82.6446 229.767 82.6079L238.312 81.6947C238.482 81.6765 238.654 81.7023 238.811 81.7695L247.929 85.667L256.883 88.5377C257.14 88.6204 257.42 88.595 257.659 88.4675L265.844 84.094C266.297 83.8517 266.861 83.9928 267.146 84.4203L276 97.667" stroke="#F04438" stroke-width="2" stroke-linecap="round" stroke-linejoin="round"/>
</g>
<defs>
<filter id="filter0_d_340_4637" x="0" y="0.666992" width="290" height="112" filterUnits="userSpaceOnUse" color-interpolation-filters="sRGB">
<feFlood flood-opacity="0" result="BackgroundImageFix"/>
<feColorMatrix in="SourceAlpha" type="matrix" values="0 0 0 0 0 0 0 0 0 0 0 0 0 0 0 0 0 0 127 0" result="hardAlpha"/>
<feOffset dy="1"/>
<feGaussianBlur stdDeviation="1"/>
<feComposite in2="hardAlpha" operator="out"/>
<feColorMatrix type="matrix" values="0 0 0 0 0.0392157 0 0 0 0 0.0496732 0 0 0 0 0.0705882 0 0 0 0.05 0"/>
<feBlend mode="normal" in2="BackgroundImageFix" result="effect1_dropShadow_340_4637"/>
<feBlend mode="normal" in="SourceGraphic" in2="effect1_dropShadow_340_4637" result="shape"/>
</filter>
<linearGradient id="paint0_linear_340_4637" x1="131" y1="0" x2="131" y2="56" gradientUnits="userSpaceOnUse">
<stop/>
<stop offset="1" stop-opacity="0"/>
</linearGradient>
</defs>
</svg>
