<svg width="290" height="113" viewBox="0 0 290 113" fill="none" xmlns="http://www.w3.org/2000/svg">
<g filter="url(#filter0_d_340_4609)">
<path d="M2 13.667C2 7.03957 7.37258 1.66699 14 1.66699H276C282.627 1.66699 288 7.03958 288 13.667V97.667C288 104.294 282.627 109.667 276 109.667H14C7.37258 109.667 2 104.294 2 97.667V13.667Z" fill="#1F1F1F" shape-rendering="crispEdges"/>
<path d="M28.6667 20.334L23.421 25.5797C23.1569 25.8437 23.0249 25.9758 22.8727 26.0252C22.7388 26.0687 22.5946 26.0687 22.4607 26.0252C22.3085 25.9758 22.1765 25.8437 21.9125 25.5797L20.0876 23.7549C19.8236 23.4909 19.6916 23.3589 19.5394 23.3094C19.4055 23.2659 19.2613 23.2659 19.1274 23.3094C18.9751 23.3589 18.8431 23.4909 18.5791 23.7549L15.3334 27.0007M28.6667 20.334H24M28.6667 20.334V25.0007" stroke="#17B26A" stroke-width="2" stroke-linecap="round" stroke-linejoin="round"/>
<path d="M38.4998 28.8062C37.7872 28.8062 37.1575 28.6836 36.6106 28.4383C36.0671 28.193 35.6412 27.855 35.3329 27.4241C35.0247 26.9932 34.8722 26.5027 34.8755 25.9525C34.8722 25.5216 34.96 25.1256 35.139 24.7643C35.3213 24.3997 35.5682 24.0964 35.8798 23.8545C36.1913 23.6092 36.5394 23.4535 36.9238 23.3872V23.3275C36.4167 23.2049 36.0107 22.9331 35.7058 22.5122C35.4009 22.0912 35.2501 21.6073 35.2534 21.0605C35.2501 20.5401 35.3876 20.0761 35.666 19.6684C35.9477 19.2574 36.3339 18.9343 36.8244 18.699C37.3149 18.4636 37.8734 18.346 38.4998 18.346C39.1196 18.346 39.6731 18.4653 40.1603 18.7039C40.6509 18.9392 41.037 19.2624 41.3187 19.6734C41.6004 20.0811 41.743 20.5434 41.7463 21.0605C41.743 21.6073 41.5872 22.0912 41.2789 22.5122C40.9707 22.9331 40.5697 23.2049 40.0758 23.3275V23.3872C40.457 23.4535 40.8 23.6092 41.1049 23.8545C41.4132 24.0964 41.6584 24.3997 41.8407 24.7643C42.0263 25.1256 42.1208 25.5216 42.1241 25.9525C42.1208 26.5027 41.965 26.9932 41.6568 27.4241C41.3485 27.855 40.921 28.193 40.3741 28.4383C39.8306 28.6836 39.2058 28.8062 38.4998 28.8062ZM38.4998 27.5484C38.9208 27.5484 39.2853 27.4788 39.5936 27.3396C39.9018 27.1971 40.1404 26.9999 40.3095 26.748C40.4785 26.4927 40.5647 26.1945 40.568 25.8531C40.5647 25.4984 40.4719 25.1852 40.2896 24.9134C40.1106 24.6417 39.867 24.4279 39.5588 24.2721C39.2505 24.1163 38.8975 24.0384 38.4998 24.0384C38.0988 24.0384 37.7425 24.1163 37.4309 24.2721C37.1194 24.4279 36.8741 24.6417 36.6951 24.9134C36.5162 25.1852 36.4283 25.4984 36.4316 25.8531C36.4283 26.1945 36.5095 26.4927 36.6752 26.748C36.8443 26.9999 37.0846 27.1971 37.3961 27.3396C37.7077 27.4788 38.0756 27.5484 38.4998 27.5484ZM38.4998 22.8105C38.8379 22.8105 39.1378 22.7425 39.3997 22.6066C39.6615 22.4707 39.867 22.2818 40.0162 22.0399C40.1686 21.7979 40.2465 21.5145 40.2498 21.1897C40.2465 20.8715 40.1703 20.5931 40.0211 20.3545C39.8753 20.1159 39.6715 19.9319 39.4096 19.8026C39.1478 19.6701 38.8445 19.6038 38.4998 19.6038C38.1485 19.6038 37.8403 19.6701 37.5751 19.8026C37.3133 19.9319 37.1094 20.1159 36.9636 20.3545C36.8178 20.5931 36.7465 20.8715 36.7498 21.1897C36.7465 21.5145 36.8194 21.7979 36.9686 22.0399C37.1177 22.2818 37.3232 22.4707 37.585 22.6066C37.8502 22.7425 38.1551 22.8105 38.4998 22.8105ZM44.6037 28.7615C44.3319 28.7615 44.0982 28.6653 43.9027 28.4731C43.7071 28.2776 43.6094 28.0422 43.6094 27.7671C43.6094 27.4954 43.7071 27.2633 43.9027 27.0711C44.0982 26.8756 44.3319 26.7778 44.6037 26.7778C44.8755 26.7778 45.1091 26.8756 45.3047 27.0711C45.5002 27.2633 45.598 27.4954 45.598 27.7671C45.598 27.9494 45.5516 28.1168 45.4588 28.2693C45.3693 28.4184 45.25 28.5377 45.1009 28.6272C44.9517 28.7167 44.786 28.7615 44.6037 28.7615ZM50.7548 28.8062C50.3007 28.7996 49.8533 28.7167 49.4125 28.5576C48.975 28.3985 48.5772 28.1334 48.2193 27.7622C47.8613 27.391 47.5746 26.8921 47.3592 26.2657C47.1471 25.6393 47.041 24.8571 47.041 23.9191C47.041 23.0309 47.1288 22.242 47.3045 21.5526C47.4835 20.8633 47.7404 20.2816 48.0751 19.8076C48.4099 19.3303 48.8142 18.9674 49.2882 18.7188C49.7621 18.4703 50.2941 18.346 50.8841 18.346C51.4906 18.346 52.0292 18.4653 52.4998 18.7039C52.9705 18.9426 53.3516 19.2723 53.6433 19.6933C53.9383 20.1142 54.1255 20.5931 54.2051 21.1301H52.6887C52.586 20.7058 52.3822 20.3595 52.0772 20.091C51.7723 19.8225 51.3746 19.6883 50.8841 19.6883C50.1383 19.6883 49.5566 20.0131 49.139 20.6627C48.7247 21.3124 48.5159 22.2155 48.5126 23.3722H48.5872C48.7628 23.0839 48.9783 22.8386 49.2335 22.6365C49.492 22.431 49.7804 22.2735 50.0985 22.1642C50.42 22.0515 50.7581 21.9951 51.1127 21.9951C51.7027 21.9951 52.2363 22.1393 52.7136 22.4276C53.1942 22.7127 53.577 23.1071 53.862 23.6109C54.1471 24.1147 54.2896 24.6914 54.2896 25.341C54.2896 25.9906 54.1421 26.5789 53.8471 27.1059C53.5555 27.6329 53.1445 28.0505 52.6142 28.3588C52.0839 28.6637 51.4641 28.8128 50.7548 28.8062ZM50.7498 27.5136C51.1409 27.5136 51.4906 27.4175 51.7988 27.2252C52.1071 27.033 52.3507 26.7745 52.5297 26.4497C52.7086 26.1249 52.7981 25.7619 52.7981 25.3609C52.7981 24.9698 52.7103 24.6135 52.5346 24.292C52.3623 23.9705 52.1236 23.7153 51.8187 23.5264C51.5171 23.3374 51.1724 23.243 50.7846 23.243C50.4896 23.243 50.2162 23.2993 49.9643 23.412C49.7157 23.5247 49.497 23.6805 49.3081 23.8794C49.1191 24.0782 48.97 24.3069 48.8606 24.5654C48.7546 24.8206 48.7015 25.0908 48.7015 25.3758C48.7015 25.757 48.7894 26.1099 48.965 26.4347C49.144 26.7596 49.3876 27.0214 49.6958 27.2203C50.0074 27.4158 50.3587 27.5136 50.7498 27.5136ZM61.4151 26.7579V26.221C61.4151 25.8365 61.4947 25.4852 61.6538 25.167C61.8162 24.8455 62.0515 24.5886 62.3597 24.3964C62.6713 24.2008 63.0475 24.1031 63.4883 24.1031C63.939 24.1031 64.3169 24.1992 64.6218 24.3914C64.9267 24.5837 65.1571 24.8405 65.3129 25.162C65.4719 25.4835 65.5515 25.8365 65.5515 26.221V26.7579C65.5515 27.1424 65.4719 27.4954 65.3129 27.8169C65.1538 28.135 64.9201 28.3919 64.6119 28.5874C64.3069 28.7797 63.9324 28.8758 63.4883 28.8758C63.0408 28.8758 62.663 28.7797 62.3548 28.5874C62.0465 28.3919 61.8129 28.135 61.6538 27.8169C61.4947 27.4954 61.4151 27.1424 61.4151 26.7579ZM62.5735 26.221V26.7579C62.5735 27.0429 62.6415 27.3015 62.7773 27.5335C62.9132 27.7655 63.1502 27.8815 63.4883 27.8815C63.823 27.8815 64.0567 27.7655 64.1893 27.5335C64.3219 27.3015 64.3881 27.0429 64.3881 26.7579V26.221C64.3881 25.9359 64.3235 25.6774 64.1942 25.4454C64.0683 25.2134 63.833 25.0974 63.4883 25.0974C63.1568 25.0974 62.9215 25.2134 62.7823 25.4454C62.6431 25.6774 62.5735 25.9359 62.5735 26.221ZM56.2944 20.9312V20.3943C56.2944 20.0098 56.3739 19.6568 56.533 19.3353C56.6954 19.0138 56.9308 18.757 57.239 18.5647C57.5505 18.3725 57.9267 18.2764 58.3675 18.2764C58.8183 18.2764 59.1961 18.3725 59.5011 18.5647C59.806 18.757 60.0363 19.0138 60.1921 19.3353C60.3479 19.6568 60.4258 20.0098 60.4258 20.3943V20.9312C60.4258 21.3157 60.3462 21.6686 60.1871 21.9901C60.0314 22.3083 59.7994 22.5652 59.4911 22.7607C59.1862 22.953 58.8117 23.0491 58.3675 23.0491C57.9168 23.0491 57.5373 22.953 57.229 22.7607C56.9241 22.5652 56.6921 22.3083 56.533 21.9901C56.3739 21.6686 56.2944 21.3157 56.2944 20.9312ZM57.4577 20.3943V20.9312C57.4577 21.2162 57.524 21.4748 57.6566 21.7068C57.7925 21.9388 58.0295 22.0548 58.3675 22.0548C58.699 22.0548 58.931 21.9388 59.0636 21.7068C59.1995 21.4748 59.2674 21.2162 59.2674 20.9312V20.3943C59.2674 20.1092 59.2028 19.8507 59.0735 19.6187C58.9442 19.3867 58.7089 19.2707 58.3675 19.2707C58.0361 19.2707 57.8008 19.3867 57.6616 19.6187C57.5257 19.8507 57.4577 20.1092 57.4577 20.3943ZM56.7667 28.667L63.7667 18.4852H64.9549L57.9549 28.667H56.7667ZM71.8517 23.5761C71.8517 22.3299 72.0158 21.1831 72.3439 20.1357C72.6721 19.0884 73.151 18.1222 73.7807 17.2373H75.1429C74.8977 17.5654 74.669 17.9681 74.4569 18.4454C74.2447 18.9227 74.0591 19.4463 73.9 20.0164C73.7409 20.5832 73.6167 21.1715 73.5272 21.7813C73.4377 22.3879 73.3929 22.9861 73.3929 23.5761C73.3929 24.3649 73.4708 25.1637 73.6266 25.9724C73.7824 26.7811 73.9928 27.5318 74.258 28.2245C74.5231 28.9172 74.8181 29.4823 75.1429 29.9198H73.7807C73.151 29.0349 72.6721 28.0687 72.3439 27.0214C72.0158 25.974 71.8517 24.8256 71.8517 23.5761ZM76.6903 28.667V27.5534L80.1357 23.9838C80.5036 23.596 80.8068 23.2562 81.0455 22.9646C81.2874 22.6696 81.468 22.3895 81.5874 22.1244C81.7067 21.8592 81.7663 21.5775 81.7663 21.2792C81.7663 20.9411 81.6868 20.6495 81.5277 20.4042C81.3686 20.1556 81.1515 19.9651 80.8764 19.8325C80.6013 19.6966 80.2914 19.6286 79.9467 19.6286C79.5821 19.6286 79.264 19.7032 78.9922 19.8524C78.7204 20.0015 78.5116 20.212 78.3658 20.4838C78.2199 20.7555 78.147 21.0737 78.147 21.4383H76.6804C76.6804 20.8185 76.8229 20.2766 77.108 19.8126C77.393 19.3486 77.7841 18.989 78.2812 18.7338C78.7784 18.4752 79.3435 18.346 79.9766 18.346C80.6162 18.346 81.1797 18.4736 81.6669 18.7288C82.1574 18.9807 82.5402 19.3254 82.8153 19.7629C83.0904 20.1971 83.228 20.6876 83.228 21.2345C83.228 21.6123 83.1567 21.9819 83.0142 22.3431C82.875 22.7044 82.6314 23.1071 82.2834 23.5512C81.9354 23.992 81.4515 24.5273 80.8317 25.157L78.8082 27.2749V27.3495H83.392V28.667H76.6903ZM84.8438 26.6784V25.4355L89.2436 18.4852H90.223V20.3147H89.6016L86.4545 25.2963V25.3758H92.4851V26.6784H84.8438ZM89.6712 28.667V26.3005L89.6811 25.7338V18.4852H91.1378V28.667H89.6712ZM94.3569 28.667V18.4852H95.8931V22.9099H100.969V18.4852H102.51V28.667H100.969V24.2274H95.8931V28.667H94.3569ZM107.487 23.5761C107.487 24.8256 107.323 25.974 106.995 27.0214C106.667 28.0687 106.188 29.0349 105.558 29.9198H104.196C104.441 29.5917 104.67 29.189 104.882 28.7117C105.094 28.2345 105.279 27.7124 105.439 27.1457C105.598 26.5756 105.722 25.9856 105.811 25.3758C105.901 24.766 105.946 24.166 105.946 23.5761C105.946 22.7906 105.868 21.9935 105.712 21.1847C105.556 20.376 105.346 19.6253 105.081 18.9326C104.815 18.2399 104.52 17.6748 104.196 17.2373H105.558C106.188 18.1222 106.667 19.0884 106.995 20.1357C107.323 21.1831 107.487 22.3299 107.487 23.5761Z" fill="#079455"/>
<mask id="mask0_340_4609" style="mask-type:alpha" maskUnits="userSpaceOnUse" x="14" y="41" width="262" height="57">
<rect width="262" height="56" transform="translate(14 41.667)" fill="url(#paint0_linear_340_4609)"/>
</mask>
<g mask="url(#mask0_340_4609)">
<path opacity="0.1" d="M266.643 48.667L276 58.667V97.667H14L23.3571 83.667L32.7143 88.667L42.0714 85.667L51.4286 81.667L60.7857 82.667L70.1429 70.667L79.5 81.667L88.8571 75.667L98.2143 77.667L107.571 68.667L116.929 83.667L126.286 75.667L135.643 86.667L145 56.667L154.357 60.667L163.714 47.8001L173.071 51.667L182.429 41.667L191.786 49.667L201.143 51.667L210.5 47.8001L219.857 52.667L229.214 47.8001L238.571 65.667L247.929 57.667L257.286 60.667L266.643 48.667Z" fill="#00A67E"/>
</g>
<path d="M276 58.667L267.442 49.5213C267.022 49.0727 266.301 49.1051 265.923 49.5896L257.715 60.1165C257.457 60.4472 257.02 60.5819 256.621 60.4539L248.46 57.8373C248.13 57.7314 247.768 57.8042 247.505 58.0295L239.525 64.8517C239.037 65.2691 238.287 65.1246 237.989 64.5555L229.677 48.6834C229.421 48.1952 228.819 48.0059 228.33 48.2602L220.319 52.427C220.029 52.5774 219.685 52.5774 219.396 52.427L210.913 48.0149C210.651 47.8787 210.342 47.8652 210.07 47.9779L201.43 51.5483C201.243 51.6256 201.037 51.6443 200.839 51.6021L192.034 49.72C191.871 49.6852 191.719 49.6103 191.593 49.5022L183.155 42.2883C182.749 41.9408 182.141 41.9746 181.775 42.3652L173.544 51.1618C173.26 51.4658 172.817 51.5617 172.432 51.4028L164.442 48.1008C164.015 47.9244 163.523 48.0633 163.251 48.4368L154.826 60.0223C154.552 60.3995 154.053 60.537 153.624 60.3537L146.018 57.1022C145.473 56.8693 144.847 57.1584 144.67 57.7239L136.183 84.9344C135.949 85.6864 134.977 85.8846 134.467 85.2846L126.935 76.4306C126.577 76.0092 125.944 75.9589 125.524 76.3185L117.812 82.9119C117.347 83.3093 116.637 83.2 116.314 82.681L108.224 69.7134C107.888 69.1743 107.141 69.0815 106.683 69.522L98.5971 77.2988C98.3577 77.529 98.0197 77.6254 97.6949 77.556L89.2595 75.753C89.0018 75.6979 88.7326 75.7468 88.5107 75.8891L80.2354 81.1954C79.8142 81.4655 79.2582 81.3827 78.9339 81.0016L70.9383 71.6021C70.5277 71.1194 69.7776 71.1354 69.388 71.6351L61.1276 82.2285C60.915 82.5012 60.5766 82.6446 60.2328 82.6079L51.688 81.6947C51.5179 81.6765 51.346 81.7023 51.1887 81.7695L42.0714 85.667L33.1175 88.5377C32.8597 88.6204 32.5796 88.595 32.3409 88.4675L24.1563 84.094C23.7028 83.8517 23.1394 83.9928 22.8536 84.4203L14 97.667" stroke="#00A67E" stroke-width="2" stroke-linecap="round" stroke-linejoin="round"/>
</g>
<defs>
<filter id="filter0_d_340_4609" x="0" y="0.666992" width="290" height="112" filterUnits="userSpaceOnUse" color-interpolation-filters="sRGB">
<feFlood flood-opacity="0" result="BackgroundImageFix"/>
<feColorMatrix in="SourceAlpha" type="matrix" values="0 0 0 0 0 0 0 0 0 0 0 0 0 0 0 0 0 0 127 0" result="hardAlpha"/>
<feOffset dy="1"/>
<feGaussianBlur stdDeviation="1"/>
<feComposite in2="hardAlpha" operator="out"/>
<feColorMatrix type="matrix" values="0 0 0 0 0.0392157 0 0 0 0 0.0496732 0 0 0 0 0.0705882 0 0 0 0.05 0"/>
<feBlend mode="normal" in2="BackgroundImageFix" result="effect1_dropShadow_340_4609"/>
<feBlend mode="normal" in="SourceGraphic" in2="effect1_dropShadow_340_4609" result="shape"/>
</filter>
<linearGradient id="paint0_linear_340_4609" x1="131" y1="0" x2="131" y2="56" gradientUnits="userSpaceOnUse">
<stop/>
<stop offset="1" stop-opacity="0"/>
</linearGradient>
</defs>
</svg>
